<?xml version="1.0" encoding="UTF-8" standalone="no"?>
<svg
   xmlns:dc="http://purl.org/dc/elements/1.1/"
   xmlns:cc="http://creativecommons.org/ns#"
   xmlns:rdf="http://www.w3.org/1999/02/22-rdf-syntax-ns#"
   xmlns:svg="http://www.w3.org/2000/svg"
   xmlns="http://www.w3.org/2000/svg"
   xmlns:sodipodi="http://sodipodi.sourceforge.net/DTD/sodipodi-0.dtd"
   xmlns:inkscape="http://www.inkscape.org/namespaces/inkscape"
   width="42.082153mm"
   height="13.512385mm"
   viewBox="0 0 42.082153 13.512386"
   version="1.1"
   id="svg8"
   sodipodi:docname="logo-umkm.svg"
   inkscape:version="1.0.2 (1.0.2+r75+1)">
  <sodipodi:namedview
     pagecolor="#ffffff"
     bordercolor="#666666"
     borderopacity="1"
     objecttolerance="10"
     gridtolerance="10"
     guidetolerance="10"
     inkscape:pageopacity="0"
     inkscape:pageshadow="2"
     inkscape:window-width="1366"
     inkscape:window-height="669"
     id="namedview16"
     showgrid="false"
     fit-margin-top="0"
     fit-margin-left="0"
     fit-margin-right="0"
     fit-margin-bottom="0"
     inkscape:zoom="3.3975545"
     inkscape:cx="107.3588"
     inkscape:cy="36.812618"
     inkscape:window-x="0"
     inkscape:window-y="30"
     inkscape:window-maximized="1"
     inkscape:current-layer="svg8" />
  <defs
     id="defs2" />
  <metadata
     id="metadata5">
    <rdf:RDF>
      <cc:Work
         rdf:about="">
        <dc:format>image/svg+xml</dc:format>
        <dc:type
           rdf:resource="http://purl.org/dc/dcmitype/StillImage" />
        <dc:title></dc:title>
      </cc:Work>
    </rdf:RDF>
  </metadata>
  <path
     id="path851"
     style="font-size:6.39132px;line-height:1.25;font-family:Añejo;-inkscape-font-specification:Añejo;letter-spacing:0.479351px;word-spacing:0px;fill:#193f41;fill-opacity:1;stroke-width:0.159783"
     d="m 26.904788,1.0946411 v 4.4782797 h 0.555521 v -0.870748 l 0.371554,-0.3369302 1.329116,1.2076782 h 0.836642 L 28.246825,3.9905883 29.997621,2.4056722 H 29.16408 L 27.460309,3.9502807 V 1.0946411 Z m -5.681824,1.1890747 c -0.495161,0 -0.921661,0.1612126 -1.279509,0.4836914 V 2.4087727 h -0.555004 v 3.1641481 h 0.555004 V 3.9905883 c 0,-0.3183178 0.126014,-0.5897258 0.377755,-0.8144205 0.249661,-0.224695 0.550148,-0.3369305 0.901754,-0.3369305 0.353686,0 0.65571,0.1122355 0.905371,0.3369305 0.251741,0.2246947 0.377755,0.4961027 0.377755,0.8144205 v 1.5823325 h 0.555004 V 3.9905883 c 0,-0.3183178 0.124994,-0.5897258 0.374654,-0.8144205 0.249662,-0.224695 0.551169,-0.3369305 0.904855,-0.3369305 0.353687,0 0.65571,0.1122355 0.905371,0.3369305 0.249661,0.2246947 0.374137,0.4961027 0.374137,0.8144205 v 1.5823325 h 0.555522 V 3.9905883 c 0,-0.4701947 -0.178554,-0.8727164 -0.536401,-1.2076781 -0.359928,-0.3328814 -0.793066,-0.4991944 -1.298629,-0.4991944 -0.322479,0 -0.623986,0.073976 -0.904855,0.2216919 -0.270465,0.143555 -0.487796,0.337927 -0.652156,0.583427 -0.166441,-0.2455 -0.384791,-0.439872 -0.655257,-0.583427 C 21.849547,2.3576916 21.547523,2.2837158 21.222964,2.2837158 Z m 11.38225,0 c -0.49516,0 -0.92166,0.1612126 -1.279509,0.4836914 V 2.4087727 h -0.555519 v 3.1641481 h 0.555519 V 3.9905883 c 0,-0.3183178 0.126016,-0.5897258 0.377756,-0.8144205 0.249661,-0.224695 0.550148,-0.3369305 0.901753,-0.3369305 0.353687,0 0.655193,0.1122355 0.904854,0.3369305 0.251743,0.2246947 0.377756,0.4961027 0.377756,0.8144205 v 1.5823325 h 0.555522 V 3.9905883 c 0,-0.3183178 0.124992,-0.5897258 0.374652,-0.8144205 0.249664,-0.224695 0.55117,-0.3369305 0.904857,-0.3369305 0.353684,0 0.655193,0.1122355 0.904854,0.3369305 0.249661,0.2246947 0.374652,0.4961027 0.374652,0.8144205 v 1.5823325 h 0.555522 V 3.9905883 c 0,-0.4701947 -0.17907,-0.8727164 -0.536916,-1.2076781 -0.359929,-0.3328814 -0.792549,-0.4991944 -1.298112,-0.4991944 -0.32248,0 -0.623988,0.073976 -0.904857,0.2216919 -0.270465,0.143555 -0.487796,0.337927 -0.652155,0.583427 -0.166442,-0.2455 -0.385308,-0.439872 -0.655775,-0.583427 C 33.231282,2.3576916 32.929773,2.2837158 32.605214,2.2837158 Z M 14.954613,2.4087727 v 1.5818156 c 0,0.4701948 0.18009,0.8716963 0.540018,1.2045776 0.357848,0.3349619 0.789448,0.5028118 1.295012,0.5028118 0.497241,0 0.924761,-0.1622328 1.282609,-0.4867921 v 0.3617352 h 0.555521 V 2.4087727 h -0.555521 v 1.5818156 c 0,0.3162372 -0.125497,0.5866252 -0.377238,0.81132 -0.249661,0.224695 -0.551685,0.3374472 -0.905371,0.3374472 -0.351606,0 -0.652093,-0.1127522 -0.901754,-0.3374472 -0.251741,-0.2246948 -0.377755,-0.4950828 -0.377755,-0.81132 V 2.4087727 Z m 0.958081,4.6260741 V 8.3458779 H 14.948412 V 8.900883 h 0.964282 v 2.609143 h 0.555521 V 8.900883 h 0.964282 V 8.3458779 H 16.468215 V 7.0348468 Z m 21.180618,0 V 8.7045124 C 36.735466,8.3820337 36.308965,8.220821 35.813805,8.220821 c -0.507645,0 -0.940265,0.1673331 -1.298112,0.502295 -0.359928,0.3328813 -0.540019,0.7343828 -0.540019,1.2045775 0,0.4701945 0.180091,0.8727155 0.540019,1.2076775 0.357847,0.332882 0.790467,0.499711 1.298112,0.499711 0.49516,0 0.921661,-0.161212 1.279507,-0.483691 v 0.358635 h 0.555522 V 7.0348468 Z M 19.543996,8.2177203 c -0.505564,0 -0.937163,0.1673334 -1.295011,0.5022951 -0.359927,0.3328813 -0.539502,0.7343828 -0.539502,1.2045775 0,0.4701941 0.179575,0.8727161 0.539502,1.2076781 0.357848,0.332881 0.789447,0.499711 1.295011,0.499711 0.553415,0 1.012571,-0.192849 1.376661,-0.577743 l 0.19327,-0.199471 -0.40256,-0.383956 -0.19327,0.203089 c -0.255902,0.268385 -0.580884,0.402559 -0.974101,0.402559 -0.295432,0 -0.559183,-0.08316 -0.792199,-0.249597 -0.228856,-0.162279 -0.378848,-0.370429 -0.449585,-0.624251 h 3.079915 V 9.9245929 c 0,-0.4701947 -0.179574,-0.8716962 -0.539502,-1.2045775 C 20.484777,8.3850537 20.05164,8.2177203 19.543996,8.2177203 Z m 4.452442,0.0031 c -0.495161,0 -0.921661,0.1612128 -1.279509,0.4836914 V 8.3458781 h -0.555521 v 3.1641479 h 0.555521 V 9.9276938 c 0,-0.3183178 0.126014,-0.5897258 0.377755,-0.8144206 0.249661,-0.2246947 0.550148,-0.3369304 0.901754,-0.3369304 h 0.280603 V 8.2208212 Z m 2.869592,0 c -0.495161,0 -0.92166,0.1622328 -1.279508,0.4867921 V 8.3458781 H 25.031 V 13.10166 h 0.555522 v -1.950269 c 0.357848,0.322479 0.784347,0.483692 1.279508,0.483692 0.507644,0 0.940783,-0.16683 1.298629,-0.499711 0.359929,-0.334962 0.539501,-0.737484 0.539501,-1.2076782 0,-0.4701947 -0.179572,-0.8716962 -0.539501,-1.2045775 -0.357846,-0.334962 -0.790985,-0.5022951 -1.298629,-0.502296 z m 4.455542,0.0031 c -0.505563,0 -0.937681,0.1663131 -1.295527,0.4991944 -0.359929,0.3328812 -0.539504,0.7343827 -0.539504,1.2045775 0,0.4701938 0.179575,0.8727158 0.539504,1.2076778 0.357846,0.332881 0.789964,0.499711 1.295527,0.499711 0.497242,0 0.924761,-0.161213 1.28261,-0.483691 v 0.358634 h 0.555522 V 8.3458779 H 32.604182 V 8.707613 C 32.246333,8.3851344 31.818814,8.2239216 31.321572,8.2239216 Z m 7.087939,0.1219562 v 1.5818157 c 0,0.4701938 0.179575,0.8716958 0.539501,1.2045768 0.357849,0.334962 0.789451,0.502812 1.295014,0.502812 0.497239,0 0.925277,-0.162233 1.283126,-0.486792 v 0.361735 h 0.555003 V 8.3458779 h -0.555003 v 1.5818156 c 0,0.3162365 -0.126016,0.5866255 -0.377757,0.8113195 -0.24966,0.224695 -0.551685,0.337447 -0.905369,0.337447 -0.351608,0 -0.652095,-0.112752 -0.901756,-0.337447 C 39.09053,10.514319 38.964517,10.24393 38.964517,9.9276935 V 8.3458779 Z M 19.543996,8.776343 c 0.297513,0 0.562801,0.082136 0.795818,0.2464967 0.228855,0.1643602 0.377827,0.3725098 0.446484,0.6242513 H 18.302212 C 18.372952,9.3953495 18.522941,9.1871999 18.751797,9.0228397 18.984813,8.8584795 19.248564,8.776343 19.543996,8.776343 Z m 16.269809,0 c 0.351605,0 0.65363,0.1132557 0.90537,0.3400312 0.249661,0.2246947 0.374137,0.4950827 0.374137,0.8113199 0,0.3183169 -0.124476,0.5902419 -0.374137,0.8149369 -0.25174,0.224695 -0.553765,0.33693 -0.90537,0.33693 -0.353687,0 -0.655193,-0.112235 -0.904856,-0.33693 -0.251741,-0.224695 -0.377754,-0.49662 -0.377754,-0.8149369 0,-0.3162372 0.126013,-0.5866252 0.377754,-0.8113199 0.249663,-0.2267755 0.551169,-0.3400312 0.904856,-0.3400312 z m -8.947775,0.0031 c 0.353686,0 0.65571,0.1122354 0.905371,0.3369304 0.249661,0.2246948 0.374137,0.4950828 0.374137,0.8113199 0,0.3162367 -0.124476,0.5881617 -0.374137,0.8149367 -0.249661,0.224695 -0.551685,0.336931 -0.905371,0.336931 -0.351606,0 -0.653113,-0.112236 -0.904854,-0.336931 -0.249662,-0.224695 -0.374654,-0.496619 -0.374654,-0.8149367 0,-0.3162371 0.124992,-0.5866251 0.374654,-0.8113199 0.251741,-0.224695 0.553248,-0.3369304 0.904854,-0.3369304 z m 4.455542,0 c 0.353687,0 0.655193,0.1122354 0.904854,0.3369304 0.251743,0.2246948 0.377756,0.4950828 0.377756,0.8113199 0,0.3183177 -0.126013,0.5902417 -0.377756,0.8149367 -0.249661,0.224695 -0.551167,0.336931 -0.904854,0.336931 -0.351605,0 -0.652611,-0.112236 -0.902271,-0.336931 -0.251741,-0.224695 -0.377238,-0.496619 -0.377238,-0.8149367 0,-0.3162371 0.125497,-0.5866251 0.377238,-0.8113199 0.24966,-0.224695 0.550666,-0.3369304 0.902271,-0.3369304 z" />
  <g
     style="fill:#a6eb81;fill-opacity:1;stroke:#497b39;stroke-width:1.42646;stroke-miterlimit:4;stroke-dasharray:none;stroke-opacity:1"
     id="g864"
     transform="matrix(0.63064015,0,0,0.63064015,-1.0150386,-0.81148882)">
    <path
       d="m 3.00999,11.22 v 4.49 c 0,4.49 1.8,6.29 6.29,6.29 H 14.69 c 4.49,0 6.29,-1.8 6.29,-6.29 v -4.49"
       stroke="#292d32"
       stroke-width="1.5"
       stroke-linecap="round"
       stroke-linejoin="round"
       id="path841"
       style="fill:#a6eb81;fill-opacity:1;stroke:#497b39;stroke-width:1.42646;stroke-miterlimit:4;stroke-dasharray:none;stroke-opacity:1" />
    <path
       d="m 12,12 c 1.83,0 3.18,-1.49 3,-3.32 L 14.34,2 H 9.67 L 9,8.68 C 8.82,10.51 10.17,12 12,12 Z"
       stroke="#292d32"
       stroke-width="1.5"
       stroke-linecap="round"
       stroke-linejoin="round"
       id="path843"
       style="fill:#a6eb81;fill-opacity:1;stroke:#497b39;stroke-width:1.42646;stroke-miterlimit:4;stroke-dasharray:none;stroke-opacity:1" />
    <path
       d="m 18.31,12 c 2.02,0 3.5,-1.64 3.3,-3.65 L 21.33,5.6 C 20.97,3 19.97,2 17.35,2 H 14.3 L 15,9.01 c 0.17,1.65 1.66,2.99 3.31,2.99 z"
       stroke="#292d32"
       stroke-width="1.5"
       stroke-linecap="round"
       stroke-linejoin="round"
       id="path845"
       style="fill:#a6eb81;fill-opacity:1;stroke:#497b39;stroke-width:1.42646;stroke-miterlimit:4;stroke-dasharray:none;stroke-opacity:1" />
    <path
       d="m 5.64,12 c 1.65,0 3.14,-1.34 3.3,-2.99 L 9.16,6.8 9.64001,2 H 6.59 C 3.97001,2 2.97,3 2.61,5.6 L 2.34,8.35 C 2.14,10.36 3.62,12 5.64,12 Z"
       stroke="#292d32"
       stroke-width="1.5"
       stroke-linecap="round"
       stroke-linejoin="round"
       id="path847"
       style="fill:#a6eb81;fill-opacity:1;stroke:#497b39;stroke-width:1.42646;stroke-miterlimit:4;stroke-dasharray:none;stroke-opacity:1" />
    <path
       d="m 12,17 c -1.67,0 -2.5,0.83 -2.5,2.5 V 22 h 5 V 19.5 C 14.5,17.83 13.67,17 12,17 Z"
       stroke="#292d32"
       stroke-width="1.5"
       stroke-linecap="round"
       stroke-linejoin="round"
       id="path849"
       style="fill:#a6eb81;fill-opacity:1;stroke:#497b39;stroke-width:1.42646;stroke-miterlimit:4;stroke-dasharray:none;stroke-opacity:1" />
  </g>
</svg>
