<?xml version="1.0" encoding="UTF-8" standalone="no"?>
<svg
   xmlns:dc="http://purl.org/dc/elements/1.1/"
   xmlns:cc="http://creativecommons.org/ns#"
   xmlns:rdf="http://www.w3.org/1999/02/22-rdf-syntax-ns#"
   xmlns:svg="http://www.w3.org/2000/svg"
   xmlns="http://www.w3.org/2000/svg"
   xmlns:sodipodi="http://sodipodi.sourceforge.net/DTD/sodipodi-0.dtd"
   xmlns:inkscape="http://www.inkscape.org/namespaces/inkscape"
   width="24"
   height="24"
   viewBox="0 0 24 24"
   fill="none"
   version="1.1"
   id="svg12"
   sodipodi:docname="routing-green.svg"
   inkscape:version="1.0.2 (1.0.2+r75+1)">
  <metadata
     id="metadata18">
    <rdf:RDF>
      <cc:Work
         rdf:about="">
        <dc:format>image/svg+xml</dc:format>
        <dc:type
           rdf:resource="http://purl.org/dc/dcmitype/StillImage" />
      </cc:Work>
    </rdf:RDF>
  </metadata>
  <defs
     id="defs16" />
  <sodipodi:namedview
     pagecolor="#ffffff"
     bordercolor="#666666"
     borderopacity="1"
     objecttolerance="10"
     gridtolerance="10"
     guidetolerance="10"
     inkscape:pageopacity="0"
     inkscape:pageshadow="2"
     inkscape:window-width="1366"
     inkscape:window-height="669"
     id="namedview14"
     showgrid="false"
     inkscape:zoom="22.418157"
     inkscape:cx="12.156123"
     inkscape:cy="12"
     inkscape:window-x="0"
     inkscape:window-y="30"
     inkscape:window-maximized="1"
     inkscape:current-layer="svg12" />
  <path
     d="M2.06999 4.59988C2.86999 1.13988 8.07999 1.13988 8.86999 4.59988C9.33999 6.62988 8.04999 8.34988 6.92999 9.41988C6.10999 10.1999 4.81999 10.1899 3.99999 9.41988C2.88999 8.34988 1.59999 6.62988 2.06999 4.59988Z"
     stroke="#292D32"
     stroke-width="1.5"
     id="path2"
     style="stroke:#497b39;stroke-opacity:1" />
  <path
     d="M15.07 16.5999C15.87 13.1399 21.11 13.1399 21.91 16.5999C22.38 18.6299 21.09 20.3499 19.96 21.4199C19.14 22.1999 17.84 22.1899 17.02 21.4199C15.89 20.3499 14.6 18.6299 15.07 16.5999Z"
     stroke="#292D32"
     stroke-width="1.5"
     id="path4"
     style="stroke:#497b39;stroke-opacity:1" />
  <path
     d="M12 5H14.68C16.53 5 17.39 7.29 16 8.51L8.01001 15.5C6.62001 16.71 7.48001 19 9.32001 19H12"
     stroke="#292D32"
     stroke-width="1.5"
     stroke-linecap="round"
     stroke-linejoin="round"
     id="path6"
     style="stroke:#497b39;stroke-opacity:1" />
  <path
     d="M5.48622 5.5H5.49777"
     stroke="#292D32"
     stroke-width="2"
     stroke-linecap="round"
     stroke-linejoin="round"
     id="path8"
     style="stroke:#497b39;stroke-opacity:1" />
  <path
     d="M18.4862 17.5H18.4978"
     stroke="#292D32"
     stroke-width="2"
     stroke-linecap="round"
     stroke-linejoin="round"
     id="path10"
     style="stroke:#497b39;stroke-opacity:1" />
</svg>
